<?xml version="1.0" encoding="UTF-8"?><svg id="Layer_1" xmlns="http://www.w3.org/2000/svg" viewBox="0 0 120 120"><defs><style>.cls-1{stroke:#000;stroke-miterlimit:10;stroke-width:3px;}</style></defs><path class="cls-1" d="m59.93,117.97c-17.79,0-35.58,0-53.37,0-.59,0-1.18.01-1.77,0-.98-.03-2.38.21-2.32-1.2.06-1.34,1.46-1.09,2.45-1.1,1.1-.02,2.19,0,3.29,0,4.21-.06,3.67.54,3.68-3.56.02-18.04,0-36.08.03-54.12,0-1.61-.27-2.78-1.75-3.82-2.65-1.86-3.76-4.72-3.82-7.9-.08-4.04.01-8.09-.04-12.14-.01-1.21.42-2,1.33-2.81,3.28-2.9,6.46-5.93,9.71-8.87.86-.77,1.33-1.41.43-2.51-.76-.93-.96-2.13-.95-3.34.02-2.87.02-5.73,0-8.6,0-1.13.24-2.18.82-3.14.79-1.3,1.89-2.14,3.49-2.15.67,0,1.35-.01,2.02-.01,24.54,0,49.07,0,73.61,0,.51,0,1.01-.01,1.52,0,2.57.09,4.38,1.54,4.59,4.11.3,3.69.22,7.41.02,11.12-.04.78-.34,1.53-.85,2.08-.96,1.05-.5,1.71.37,2.49,3.15,2.8,6.22,5.69,9.41,8.45,1.13.98,1.58,2.02,1.55,3.49-.07,3.62,0,7.25.02,10.87.02,3.84-1.15,7.14-4.44,9.41-.7.49-1.02,1.07-.96,1.9.04.5,0,1.01,0,1.52,0,18.12,0,36.25,0,54.37,0,.51.04,1.01,0,1.52-.11,1.19.41,1.68,1.6,1.65,1.85-.05,3.71-.03,5.56,0,.58,0,1.18.07,1.73.22.42.12.66.51.64.98-.02.47-.3.88-.71.94-.82.13-1.67.16-2.51.16-18.13,0-36.26,0-54.38,0ZM25.08,51.5c-.3.26-.53.39-.66.58-2.12,2.97-4.98,4.5-8.65,4.29-1.31-.07-1.56.53-1.55,1.65.04,2.7,0,5.4,0,8.1,0,15.69,0,31.38,0,47.06,0,2.45.02,2.47,2.51,2.47,17.88,0,35.77,0,53.65,0,2.27,0,2.31-.03,2.31-2.17.01-5.9-.03-11.81-.02-17.71,0-8.94,0-17.88.05-26.82,0-2.2.24-2.45,2.23-2.46,7.09-.03,14.17-.03,21.26,0,1.98,0,2.15.18,2.15,2.21.04,8.94.05,17.88.05,26.82,0,6.07-.04,12.14-.02,18.22,0,1.83.06,1.85,1.82,1.9,1.18.04,2.36.03,3.54,0,2.06-.04,2.1-.05,2.1-2.13.01-18.39,0-36.77,0-55.16,0-1.99-.03-2.06-2.18-1.98-3.36.12-6.04-1.27-8.09-3.91-.29-.37-.43-.96-1.17-.82-2.11,2.92-4.85,4.78-8.67,4.72-3.76-.05-6.38-2.1-8.58-5.08-2.2,3.25-4.95,5.06-8.75,5.1-3.84.04-6.43-2.06-8.63-4.89-4.88,6.46-12.48,6.57-17.33.14-6.52,6.45-11.71,6.46-17.37-.14Zm34.81-31.77c12.4,0,24.8,0,37.2,0,2.91,0,3.61-.66,3.69-3.52.06-2.28.03-4.55.01-6.83-.02-4.01-.53-4.52-4.51-4.52-24.21,0-48.42,0-72.63,0-.67,0-1.35,0-2.02.02-1.39.05-2.26.82-2.38,2.16-.31,3.53-.35,7.08.02,10.6.15,1.47.88,1.96,2.41,2.08.67.05,1.35.02,2.02.02,12.06,0,24.13,0,36.19,0Zm48.23,11.69c.16-.47-.02-.66-.2-.82-2.8-2.56-5.62-5.1-8.38-7.7-.82-.76-1.72-.93-2.77-.93-24.62.01-49.25.02-73.87-.01-1.29,0-2.23.4-3.14,1.28-1.75,1.71-3.59,3.32-5.38,4.98-1.02.94-2.02,1.9-3.4,3.2h97.14Zm-22.61,84.23c2.95,0,5.9-.03,8.84.02,1.21.02,1.88-.24,1.86-1.67-.06-5.22-.04-10.44-.01-15.66,0-1.12-.29-1.72-1.55-1.71-6.06.03-12.13.03-18.19,0-1.1,0-1.46.48-1.45,1.53.03,5.3.04,10.61,0,15.91-.01,1.26.53,1.6,1.66,1.58,2.95-.04,5.9-.01,8.84,0Zm-.1-46.84c-2.86,0-5.72.03-8.58-.01-1.2-.02-1.85.25-1.83,1.67.07,4.54.05,9.08.01,13.63,0,1.14.33,1.68,1.56,1.68,5.97-.04,11.95-.04,17.92,0,1.34.01,1.73-.54,1.72-1.8-.05-4.46,0-8.92-.03-13.37-.01-1.72-.07-1.76-1.94-1.78-2.94-.03-5.89,0-8.83,0Zm17.97-34.85v.03c-2.02,0-4.05.01-6.07,0-.88,0-1.46.23-1.45,1.27.03,3.88-.24,7.78.09,11.63.39,4.48,3.48,7.36,7.9,7.24,4.22-.11,7.14-3.43,7.2-7.91.05-3.54-.04-7.08,0-10.62.01-1.16-.36-1.68-1.59-1.65-2.02.06-4.05.02-6.07.02Zm-34.89.01v.03c-1.94,0-3.88.05-5.81-.02-1.31-.05-1.78.46-1.76,1.76.06,3.62-.03,7.25.03,10.87.07,4.16,3.35,7.52,7.29,7.6,4,.08,7.54-3.04,7.74-7.15.19-3.87.03-7.75.06-11.62.01-1.08-.41-1.51-1.49-1.49-2.02.04-4.04.01-6.07.01Zm-52.19.02v-.03c-2.02,0-4.05.02-6.07-.01-1-.02-1.58.23-1.57,1.39.04,3.88-.08,7.76.07,11.63.13,3.27,2.31,5.91,5.22,6.76,4.96,1.45,9.59-1.81,9.87-7.15.19-3.7.02-7.42.06-11.13.01-1.09-.44-1.5-1.51-1.48-2.02.04-4.05.01-6.07.01Zm24.83,7.57h-.04c0-1.93-.05-3.87.02-5.8.04-1.26-.36-1.82-1.71-1.79-3.78.07-7.57.08-11.36.03-1.3-.02-1.78.44-1.77,1.74.04,2.94-.03,5.89-.04,8.83,0,.92-.09,1.86,0,2.77.42,3.96,3.9,7.02,7.74,6.86,4.13-.17,7.14-3.36,7.15-7.59,0-1.68,0-3.36,0-5.05Zm17.33-.05c0-1.94-.05-3.88.02-5.82.05-1.31-.44-1.76-1.76-1.73-3.71.08-7.42.03-11.13.08-1.87.02-1.9.07-1.92,2.06-.03,3.63-.06,7.25-.03,10.88.03,3.9,3.41,7.15,7.38,7.18,3.97.03,7.34-3.15,7.43-7.09.05-1.85,0-3.71,0-5.57Zm27.46-7.55v.04c-2.02,0-4.04.01-6.05,0-.88,0-1.46.23-1.45,1.25.04,4.12-.12,8.25.15,12.35.25,3.74,3.69,6.57,7.41,6.57,3.84,0,7.23-3,7.4-6.86.18-3.94,0-7.9.06-11.85.02-1.29-.62-1.53-1.72-1.5-1.93.05-3.87.01-5.8.01Zm-.27,54.15c-3.02,0-6.05.02-9.07-.01-1.03-.01-1.58.32-1.52,1.44.05,1.09.05,2.18,0,3.27-.04,1.06.37,1.52,1.46,1.51,6.05-.02,12.1-.02,18.14,0,1.03,0,1.57-.35,1.53-1.45-.04-1.01-.06-2.02,0-3.02.09-1.3-.42-1.79-1.73-1.76-2.94.06-5.88.02-8.82.02Z"/><path class="cls-1" d="m42.37,100.74c-6.4,0-12.81,0-19.21,0-2.75,0-2.79-.05-2.79-2.87,0-9.52,0-19.04,0-28.56,0-2.71.07-2.78,2.89-2.78,12.89,0,25.78,0,38.67,0,2.68,0,2.86.18,2.86,2.88.01,9.52.01,19.04,0,28.56,0,2.57-.2,2.77-2.71,2.78-6.57.02-13.14,0-19.72,0Zm0-2.29c5.99,0,11.97.01,17.95,0,2.08,0,2.12-.04,2.12-2.08.02-8.51.02-17.02,0-25.54,0-1.91-.05-1.96-1.98-1.96-11.97-.01-23.94-.01-35.91,0-1.97,0-2.02.05-2.03,1.94-.02,8.51-.02,17.02,0,25.54,0,2.06.05,2.1,2.14,2.1,5.9.02,11.8,0,17.7,0Z"/><path class="cls-1" d="m49.26,74.08c.02.88-.67,1.32-1.19,1.84-3.14,3.16-6.3,6.31-9.46,9.47-1.9,1.9-3.8,3.81-5.72,5.71-.41.41-.77.91-1.37,1.08-.44.12-.83.02-1.11-.37-.21-.28-.3-.58-.17-.94.25-.66.78-1.09,1.25-1.56,5-5,9.99-10,15-14.99.41-.41.84-.85,1.34-1.12.68-.37,1.4.13,1.42.88Z"/><path class="cls-1" d="m51.4,84.78c-.04.57-.37.95-.73,1.31-2.15,2.15-4.29,4.29-6.44,6.43-.18.18-.36.36-.57.5-.46.32-.97.37-1.39,0-.42-.37-.48-.87-.18-1.37.09-.14.17-.3.29-.41,2.32-2.33,4.64-4.66,6.98-6.97.23-.22.56-.42.87-.47.73-.11,1.06.35,1.19.98Z"/></svg>