<?xml version="1.0" encoding="UTF-8"?><svg id="Layer_1" xmlns="http://www.w3.org/2000/svg" viewBox="0 0 120 120"><defs><style>.cls-1{stroke-width:0px;}</style></defs><path class="cls-1" d="m111.21,49.84c.3,6.03-1.11,11.21-3.32,16.21-2.66,6.03-6.26,11.49-10.26,16.7-6.06,7.88-12.95,14.99-20.21,21.75-5.1,4.75-10.39,9.27-15.88,13.55-.16.13-.32.25-.49.38-1.29.97-2.18.98-3.44.02-1.01-.77-2.01-1.55-3-2.35-8.74-7.06-17.03-14.61-24.68-22.84-6.09-6.55-11.71-13.48-16.17-21.27-2.76-4.82-5-9.85-5.97-15.37-.45-2.56-.5-5.13-.33-7.71.43-6.6,1.95-12.94,4.81-18.92,5.41-11.32,13.77-19.71,25.11-25.1C45.22,1.15,53.53-.41,62.18.09c12.34.72,23.14,5.26,32.25,13.63,8.24,7.57,13.49,16.89,15.78,27.84.6,2.89.94,5.82.99,8.27ZM59.27,4.6c-3.15-.03-6.25.3-9.3.93-10.27,2.14-18.95,7.11-25.94,14.92-6.52,7.28-10.35,15.82-11.68,25.51-.9,6.55.02,12.78,2.82,18.79,2.68,5.76,6.2,10.97,10.09,15.94,6,7.67,12.81,14.57,19.94,21.17,4.27,3.95,8.7,7.72,13.23,11.36.91.73.71.87,1.81-.03,1.65-1.35,3.31-2.68,4.94-4.05,9.55-8.08,18.58-16.69,26.54-26.37,3.62-4.4,6.97-9,9.73-14,1.79-3.24,3.29-6.59,4.27-10.16,1.14-4.18,1.12-8.41.55-12.67-.97-7.31-3.36-14.09-7.55-20.16-9.52-13.8-22.77-20.72-39.44-21.18Z"/><path class="cls-1" d="m85.95,51.81c-.23.72-.16,1.16-.17,1.6,0,6.76,0,13.52,0,20.27,0,.37.02.74-.01,1.11-.1,1.26-.96,2.11-2.22,2.2-.33.02-.66,0-.98,0-15.48,0-30.96,0-46.45,0-.33,0-.66.01-.98,0-1.3-.08-2.12-.87-2.23-2.16-.04-.41-.02-.82-.02-1.23,0-6.72,0-13.43,0-20.15,0-.44.1-.89-.1-1.33-.38-.12-.51.2-.69.38-1,.97-1.96,1.98-2.97,2.94-.79.75-1.86.9-2.71.44-1.25-.67-1.62-2.21-.79-3.36.24-.33.54-.61.83-.9,10.16-10.17,20.33-20.34,30.49-30.5,1.89-1.9,2.87-1.9,4.74-.04,10.17,10.16,20.33,20.33,30.5,30.5.26.26.53.52.76.8.75.94.72,2.19-.05,3.03-.8.87-2.14,1-3.12.23-.54-.43-1.02-.95-1.51-1.44-.72-.73-1.42-1.47-2.3-2.38Zm-26.66,20.58c6.92,0,13.84,0,20.76,0,1.09,0,1.11-.02,1.11-1.06,0-7.78,0-15.56.01-23.34,0-.62-.18-1.07-.62-1.51-6.87-6.85-13.73-13.72-20.6-20.57-.64-.64-.67-.64-1.33.03-6.86,6.87-13.71,13.74-20.57,20.6-.4.4-.6.82-.6,1.4.01,7.82,0,15.64.01,23.46,0,.98.03.98,1.06,1.01.29,0,.57,0,.86,0,6.63,0,13.27,0,19.9,0Z"/><path class="cls-1" d="m50.09,52.38c0-2.17-.01-4.34,0-6.5.01-1.92.84-2.75,2.78-2.76,4.29-.02,8.59-.02,12.88,0,1.99,0,2.83.87,2.83,2.86.01,4.29.01,8.59,0,12.88,0,1.94-.85,2.81-2.75,2.81-4.33.02-8.67,0-13,0-.12,0-.25,0-.37,0-1.47-.09-2.35-.95-2.37-2.42-.03-2.29,0-4.58,0-6.87h0Zm9.22,4.68c1.23,0,2.45,0,3.68,0,.96,0,.99-.02.99-.93.01-2.49.01-4.98,0-7.48,0-.88-.03-.9-.89-.91-2.49-.01-4.98-.01-7.48,0-.9,0-.93.03-.94.87-.02,2.53,0,5.07-.01,7.6,0,.62.2.88.85.86,1.27-.04,2.53-.01,3.8,0Z"/></svg>