<?xml version="1.0" encoding="UTF-8"?><svg id="Layer_1" xmlns="http://www.w3.org/2000/svg" viewBox="0 0 120 120"><defs><style>.cls-1{stroke-width:0px;}</style></defs><path class="cls-1" d="m19.39,80.53c0-12.28.1-24.57-.04-36.85-.08-7.51,5.4-15.64,14.57-17.2,1.06-.18,2.13-.26,3.22-.25,4.34.01,8.68,0,13.02.02.63,0,1.02-.17,1.42-.69,4.3-5.67,12.43-5.69,16.75-.03.43.56.86.73,1.51.72,4.41-.02,8.82-.02,13.22,0,3.09.01,6.01.7,8.68,2.28,5.33,3.16,8.27,7.84,8.81,14.02.06.7.07,1.41.07,2.12,0,24.5-.01,48.99.02,73.49,0,1.89-.6,3.05-3.08,3.05-17.67-.06-35.33-.03-53-.03-7.43,0-14.87,0-22.3,0-.34,0-.68.02-1.01-.02-1.04-.12-1.77-.89-1.85-1.94-.02-.34-.01-.67-.01-1.01,0-12.55,0-25.1,0-37.65Zm26.6-5.65c-.26.4-.16.78-.16,1.14,0,13.19,0,26.38,0,39.56,0,.27,0,.54.01.81,0,.24.15.37.38.38.27.02.54.02.81.02,3.16,0,6.32,0,9.49,0,1.5,0,1.27.04,1.27-1.33,0-8.38,0-16.75,0-25.13,0-.27,0-.54,0-.81.06-1.23.92-2.12,2.09-2.17,1.18-.05,2.11.75,2.27,1.98.05.36.03.74.03,1.11,0,8.44,0,16.89,0,25.33,0,1.05,0,1.05,1.05,1.06,3.3,0,6.59,0,9.89,0,1.01,0,1.02,0,1.02-.98,0-13.36,0-26.71,0-40.07,0-.28.08-.6-.18-.9-4.55,1.41-9.22,2.05-13.99,2.05-4.77,0-9.44-.65-13.98-2.05Zm-22.07-19.37c-.26.49-.17.9-.17,1.29,0,19.54,0,39.08,0,58.63,0,.17,0,.34,0,.5.02.88.02.9.91.9,5.28,0,10.56,0,15.84,0,.93,0,.94-.01.94-.96,0-13.99,0-27.98.02-41.98,0-.69-.24-1.02-.83-1.3-1.52-.72-2.95-1.61-4.33-2.58-4.81-3.39-8.55-7.75-11.44-12.85-.29-.52-.58-1.04-.92-1.65Zm72.17.12c-.12.1-.18.13-.21.19-.22.38-.42.76-.64,1.14-3.81,6.76-8.98,12.14-15.96,15.65-.71.36-.73.83-.73,1.46,0,13.86,0,27.72,0,41.58,0,.17.01.34,0,.5-.03.45.13.71.62.67.17-.01.34,0,.5,0,5.15,0,10.29,0,15.44,0,1.1,0,1.1,0,1.11-1.11,0-.03,0-.07,0-.1,0-19.64,0-39.29,0-58.93,0-.33.08-.67-.13-1.06Zm-38.3,14.88c0-.17,0-.34,0-.5-.04-1.78.25-1.26-1.21-2.2-5.65-3.66-10.51-8.17-14.41-13.67-4.75-6.7-7.35-14.16-7.65-22.39-.03-.92-.06-.95-.92-.7-5.26,1.52-8.48,4.96-9.66,10.31-.08.37-.05.72.02,1.1,1.04,5.64,3.18,10.82,6.43,15.54,2.58,3.76,5.77,6.89,9.67,9.31,5.09,3.16,10.68,4.68,16.6,5.13,1.14.09,1.14.07,1.14-1.11,0-.27,0-.54,0-.81Zm4.41-.11c0,.37,0,.74,0,1.11,0,.03,0,.07,0,.1.02.87.02.89.93.83,2.25-.15,4.47-.48,6.68-.98,5.59-1.29,10.55-3.8,14.76-7.7,5.84-5.41,9.3-12.17,11.19-19.82.43-1.73.21-3.31-.41-4.91-.67-1.72-1.64-3.24-2.95-4.53-1.66-1.65-3.61-2.79-5.87-3.39-1.02-.27-1.03-.26-1.07.85-.3,7.36-2.47,14.14-6.41,20.35-3.96,6.24-9.14,11.26-15.32,15.26-1.13.73-1.91,1.42-1.53,2.86Zm12.08-19.18c.07-.06.17-.12.22-.2,4.04-5.92,6.35-12.42,6.59-19.61.02-.74.01-.76-.79-.76-2.89,0-5.79,0-8.68,0q-1.14,0-1.12,1.11c.11,6.11-5.43,11.18-11.49,10.55-5.99-.62-9.82-5.79-9.52-10.87.04-.77.02-.79-.74-.79-3.03-.01-6.05-.02-9.08-.01-.82,0-.83.02-.79.87.28,7,2.44,13.38,6.34,19.19.14.21.22.51.61.51.2-.22.43-.47.67-.7,2.47-2.46,5.4-4.09,8.82-4.81,2.16-.46,4.35-.42,6.53-.33,4.57.2,8.46,1.97,11.68,5.21.23.23.39.55.75.65Zm-2.87,3.6c-.1-.14-.21-.3-.34-.45-1.69-1.96-3.74-3.35-6.23-4.11-2.1-.64-4.25-.64-6.4-.54-3.82.17-7.01,1.72-9.51,4.62-.49.57-.49.59.02,1.16,3.03,3.42,6.5,6.33,10.33,8.82.54.35.94.31,1.45-.03,1.21-.8,2.38-1.64,3.53-2.52,2.44-1.86,4.67-3.95,6.72-6.24.17-.19.42-.35.43-.7Zm-17.53-22.93c.02,3.36,2.77,6.07,6.14,6.06,3.36-.02,6.1-2.77,6.09-6.11,0-3.34-2.79-6.13-6.09-6.13-3.41,0-6.16,2.78-6.13,6.18Z"/><path class="cls-1" d="m40.86.74c5.84,0,10.53,4.67,10.53,10.5,0,5.84-4.7,10.52-10.53,10.51-5.76-.01-10.47-4.71-10.51-10.46-.03-5.79,4.7-10.54,10.51-10.55Zm0,16.62c3.42.01,6.18-2.73,6.17-6.13-.01-3.38-2.73-6.08-6.1-6.09-3.43-.01-6.17,2.72-6.16,6.13.01,3.37,2.72,6.08,6.1,6.09Z"/><path class="cls-1" d="m79.06.74c5.84-.02,10.56,4.66,10.57,10.49.01,5.81-4.71,10.53-10.53,10.53-5.83,0-10.55-4.74-10.52-10.55.03-5.8,4.69-10.45,10.48-10.47Zm0,16.61c3.43.01,6.17-2.71,6.17-6.13,0-3.38-2.72-6.08-6.1-6.1-3.42-.01-6.19,2.73-6.18,6.13,0,3.35,2.75,6.08,6.11,6.09Z"/></svg>