<?xml version="1.0" encoding="UTF-8"?><svg id="Layer_1" xmlns="http://www.w3.org/2000/svg" viewBox="0 0 120 120"><defs><style>.cls-1{stroke-width:0px;}</style></defs><path class="cls-1" d="m82.63,104.94c-11.49,0-22.99.02-34.48-.03-1.32,0-1.99.36-2.57,1.62-4.26,9.17-14.35,15.02-25.29,13.39-10.12-1.51-18.33-9.65-19.98-19.96-1.94-12.18,5.66-23.83,17.59-26.95,1.65-.43,1.58-.11,1.58-2.04,0-21.13,0-42.25,0-63.38,0-2.93.22-3.14,3.19-3.14,1.59,0,3.18-.03,4.76,0,1.53.03,2.04.57,2.1,2.1.02.44,0,.88,0,1.31,0,20.85,0,41.71,0,62.56,0,.44.04.88,0,1.31-.09.85.25,1.28,1.1,1.49.9.22,1.75.61,2.63.91.91.32,1.03.26,1.04-.74.03-2.63,0-5.25.01-7.88,0-.44-.03-.88.02-1.31.12-1.15.63-1.67,1.79-1.72,1.2-.05,2.41-.02,3.61-.02,2.74,0,5.47-.01,8.21,0,1.91.01,2.35.43,2.36,2.31.01,7.72.01,15.43,0,23.15,0,1.84-.29,2.17-2.13,2.39-.6.07-.91.2-.78.88.19.96.36,1.94.47,2.91.07.63.39.84.97.82.49-.02.99,0,1.48,0,22.17,0,44.33,0,66.5,0,3.03,0,3.18.15,3.18,3.13,0,1.53.02,3.07,0,4.6-.03,1.84-.42,2.25-2.22,2.27-2.08.03-4.16,0-6.24,0-9.63,0-19.27,0-28.9,0Zm-58.62-29.39c-11.38-.01-20.71,9.2-20.72,20.46,0,11.61,9.15,20.9,20.62,20.92,11.33.01,20.73-9.27,20.76-20.49.03-11.56-9.18-20.88-20.66-20.89Zm2.24-35.41c0-1.97,0-3.94,0-5.91,0-8.31,0-16.63,0-24.94,0-1.58-.02-1.58-1.48-1.61q-2.01-.03-2.01,2.06c0,20.02,0,40.03,0,60.05,0,2.81-.49,2.37,2.58,2.52.62.03.92-.21.91-.84-.01-.44,0-.87,0-1.31,0-10.01,0-20.02,0-30.02Zm21.19,61.28c.68.34,1.35.2,1.99.2,21.71,0,43.42,0,65.13,0,.27,0,.55,0,.82,0,1.28-.03,1.3-.03,1.31-1.26,0-2.46.15-2.12-2.09-2.12-21.22,0-42.43,0-63.65,0-.97,0-2.18-.41-2.86.22-.73.67-.42,1.95-.64,2.95Zm-.43-25.04c0-3.17-.02-6.35.01-9.52,0-.85-.3-1.15-1.14-1.14-2.35.03-4.71,0-7.06.02-1.15.01-1.19.04-1.2,1.22-.02,2.85.01,5.69-.01,8.54,0,.72.22,1.22.81,1.66,3.17,2.38,5.56,5.4,7.27,8.97.12.24.22.54.42.69.35.27.75.29.85-.26.07-.37.04-.76.04-1.15,0-3.01,0-6.02,0-9.03Z"/><path class="cls-1" d="m97.29,58.87c0-9.41,0-18.82,0-28.23,0-.44-.02-.88.01-1.31.1-1.16.58-1.63,1.76-1.76.27-.03.55-.02.82-.02,3.61,0,7.22-.01,10.83,0,2.17,0,2.58.43,2.58,2.61,0,19.15,0,38.3,0,57.45,0,.16,0,.33,0,.49-.06,1.62-.57,2.18-2.18,2.2-3.45.03-6.89.01-10.34.01-.44,0-.88.01-1.31,0-1.6-.07-2.14-.59-2.16-2.22-.03-2.57,0-5.14,0-7.72,0-7.17,0-14.34,0-21.5Zm3.28-.16c0,8.8,0,17.61,0,26.41,0,1.98-.21,1.93,1.99,1.93,1.8,0,3.61,0,5.41,0,2.29,0,2.04.05,2.04-2.04,0-17.39,0-34.77,0-52.16,0-.38-.01-.77,0-1.15.01-.52-.2-.84-.75-.84-2.62,0-5.25,0-7.87,0-.53,0-.81.25-.8.79,0,.44,0,.87,0,1.31,0,8.58,0,17.17,0,25.75Z"/><path class="cls-1" d="m76.3,65.7c0-7.05,0-14.11,0-21.16,0-.44-.02-.88.01-1.31.09-1.23.61-1.78,1.86-1.82,1.8-.05,3.61-.02,5.41-.02,2.13,0,4.27-.02,6.4,0,1.86.02,2.32.47,2.32,2.35.01,6.67,0,13.34,0,20.01,0,7.76,0,15.53,0,23.29,0,.44.02.88,0,1.31-.08,1.32-.6,1.89-1.93,1.93-1.75.06-3.5.02-5.25.02-2.13,0-4.27.02-6.4,0-1.9-.02-2.41-.53-2.41-2.47-.01-7.38,0-14.76,0-22.14Zm12.72.19c0-3.23,0-6.45,0-9.68,0-3.39,0-6.78,0-10.17,0-1.34-.03-1.36-1.38-1.37-2.19-.02-4.38-.02-6.56,0-1.46,0-1.46.02-1.49,1.45,0,.16,0,.33,0,.49,0,12.86,0,25.71,0,38.57,0,.33.01.66,0,.98-.01.62.31.88.91.88,2.57,0,5.14,0,7.71,0,.53,0,.82-.24.81-.79,0-.44,0-.88,0-1.31,0-6.35,0-12.69,0-19.04Z"/><path class="cls-1" d="m105.5,12.34c-1.89-.51-3.61-.96-5.33-1.43-.53-.14-1.07-.26-1.56-.5-.76-.37-1.06-1.19-.82-1.93.25-.78.91-1.21,1.78-1.12.32.03.64.15.95.24,3.01.8,6.03,1.59,9.04,2.4,2.16.58,2.43,1.07,1.84,3.31-.78,2.96-1.58,5.92-2.37,8.87-.08.32-.16.64-.29.94-.39.91-1.1,1.27-1.96,1.02-.85-.24-1.35-.97-1.15-1.89.27-1.28.66-2.54.99-3.81.23-.89.46-1.78.72-2.8-.84,0-1.32.47-1.85.77-17.77,10.25-35.53,20.51-53.29,30.78-4.64,2.68-9.28,5.37-13.92,8.05-.43.25-.85.51-1.29.72-.98.46-1.85.25-2.3-.51-.45-.77-.23-1.69.61-2.28.49-.35,1.03-.62,1.55-.92,22.31-12.88,44.63-25.76,66.94-38.64.55-.32,1.17-.56,1.73-1.24Z"/><path class="cls-1" d="m71.3,70.83c0,5.42,0,10.83,0,16.25,0,.38.01.77,0,1.15-.06,1.51-.58,2.05-2.12,2.08-1.97.04-3.94.01-5.91.01-1.81,0-3.61.01-5.42,0-2.03-.02-2.54-.5-2.55-2.51-.02-3.28,0-6.57,0-9.85,0-7.77,0-15.54,0-23.31,0-.44-.02-.88,0-1.31.08-1.41.62-1.95,2.05-1.98,1.7-.04,3.39-.01,5.09-.01,2.08,0,4.16,0,6.24,0,2.19,0,2.61.42,2.61,2.57,0,5.64,0,11.27,0,16.91Zm-3.28.04c0-4.92,0-9.84,0-14.76,0-1.46-.02-1.48-1.42-1.49-2.19-.01-4.37-.01-6.56,0-1.42,0-1.44.02-1.44,1.48-.01,3.88,0,7.76,0,11.64,0,5.9,0,11.81,0,17.71,0,1.56.02,1.58,1.52,1.58,2.13.01,4.26.01,6.4,0,1.49,0,1.51-.02,1.51-1.57,0-4.87,0-9.73,0-14.6Z"/><path class="cls-1" d="m24.11,78.25c8-.2,17.73,6.16,17.87,18.22.11,9.56-8.32,17.87-17.84,17.79-10.31-.1-18.28-8.06-18.16-18.26.13-10.67,9.06-18.01,18.13-17.74Zm-14.86,17.96c0,8.18,6.62,14.75,14.85,14.75,7.87,0,14.55-6.65,14.61-14.52.06-8.21-6.53-14.88-14.7-14.9-8.1-.02-14.75,6.6-14.76,14.68Z"/><path class="cls-1" d="m29.3,100.49c-.03,1.46-.9,2.98-2.55,3.98-.71.43-1.16.79-1.17,1.73-.02,1-.7,1.55-1.56,1.57-.91.03-1.59-.54-1.63-1.65-.03-.86-.41-1.26-1.11-1.6-.43-.21-.82-.55-1.15-.91-.71-.75-.76-1.51-.22-2.21.53-.68,1.35-.81,2.2-.32.33.19.61.48.95.64.74.36,1.47.37,2.15-.16.67-.52.97-1.4.72-2.2-.25-.79-.77-1.31-1.62-1.44-.38-.06-.77-.04-1.14-.1-2.26-.36-4.04-2.06-4.44-4.25-.43-2.32.46-4.44,2.47-5.61.71-.41,1.19-.76,1.19-1.71,0-.99.68-1.55,1.54-1.57.85-.02,1.62.52,1.63,1.49,0,1.02.51,1.45,1.28,1.83.49.24.9.63,1.21,1.09.45.68.37,1.57-.2,2.1-.59.55-1.26.62-1.95.2-.33-.2-.6-.48-.93-.67-1.02-.57-2.29-.19-2.81.83-.56,1.09-.07,2.41,1.1,2.83.45.16.96.2,1.44.28,2.74.43,4.59,2.58,4.59,5.83Z"/></svg>