<?xml version="1.0" encoding="UTF-8"?><svg id="Layer_1" xmlns="http://www.w3.org/2000/svg" viewBox="0 0 120 120"><defs><style>.cls-1{stroke-width:0px;}</style></defs><path class="cls-1" d="m60.21,120.44c-16.91,0-33.82,0-50.73,0-.59,0-1.18.02-1.77,0-1.93-.08-2.55-.69-2.57-2.67-.03-3.74-.03-7.47,0-11.21.02-2.09.63-2.71,2.69-2.76,1.64-.04,3.28,0,4.92-.01,1.69-.02,1.7-.03,1.71-1.79.02-2.62,0-5.24,0-7.86,0-10.09,0-20.19,0-30.28,0-.33,0-.66,0-.98-.02-1.86-.02-1.87-1.81-1.89-1.57-.01-3.15.02-4.72-.01-2.17-.04-2.77-.66-2.79-2.86-.03-2.95-.02-5.9,0-8.85,0-2.34.21-2.62,2.45-3.38,13.7-4.67,27.41-9.32,41.11-13.98,2.6-.89,5.21-1.77,7.81-2.67,1.77-.61,1.78-.62,1.78-2.45,0-7.73,0-15.47,0-23.2,0-.52-.03-1.05.02-1.57.15-1.69.82-2.39,2.48-2.41,3.87-.04,7.73-.05,11.6,0,1.85.02,2.54.79,2.63,2.68q.12,2.51,2.55,2.51c2.49,0,4.98-.02,7.47,0,2.22.03,2.93.74,2.95,2.97.03,2.88.03,5.77,0,8.65-.02,2.28-.65,2.89-2.95,2.91-3.6.02-7.21.02-10.81,0-2.28-.01-2.88-.63-2.96-2.92-.01-.33-.03-.66,0-.98.07-.89-.26-1.31-1.23-1.29-2.1.05-4.19.04-6.29,0-.87-.01-1.33.22-1.32,1.21.03,4.06.05,8.13-.01,12.19-.02,1.07.61,1.31,1.38,1.57,5.09,1.72,10.17,3.45,15.26,5.18,11.16,3.79,22.33,7.58,33.49,11.37.56.19,1.12.37,1.66.59.86.36,1.38.98,1.38,1.95,0,3.54.04,7.08-.02,10.62-.02,1.42-.78,2.08-2.28,2.14-1.64.07-3.28.02-4.91.03-2.08,0-2.08.01-2.1,2-.01,1.83,0,3.67,0,5.51,0,10.81,0,21.63,0,32.44,0,.46-.01.92,0,1.38.06,1.41.08,1.45,1.44,1.48,1.64.03,3.28,0,4.92.01,2.35.03,2.95.6,2.96,2.88.02,3.6.02,7.21,0,10.81-.01,2.34-.59,2.93-2.89,2.95-3.15.03-6.29,0-9.44,0-14.35,0-28.71,0-43.06,0Zm.17-63.6c16.12,0,32.24,0,48.36,0,.59,0,1.18-.01,1.77-.01.73,0,1.07-.33,1.06-1.08-.01-1.51-.06-3.02.03-4.52.07-1.17-.3-1.88-1.49-2.09-.25-.05-.49-.18-.74-.26-15.75-5.34-31.5-10.67-47.24-16.04-1.26-.43-2.33-.39-3.58.04-13.07,4.48-26.16,8.9-39.24,13.34-2.91.99-5.82,2.01-8.75,2.95-.98.31-1.37.81-1.32,1.83.07,1.18,0,2.36.02,3.54.01,2.44-.2,2.31,2.38,2.31,16.25,0,32.5,0,48.75,0Zm-.08,59.53c16.19,0,32.37,0,48.56,0,.52,0,1.05-.03,1.57,0,.86.04,1.15-.4,1.14-1.2-.02-1.57,0-3.15,0-4.72,0-2.91.2-2.59-2.69-2.59-32.31,0-64.62,0-96.93,0-.46,0-.92.04-1.38,0-1.07-.1-1.36.43-1.34,1.41.04,1.9-.01,3.8.02,5.7.02,1.35.07,1.37,1.49,1.41.52.02,1.05,0,1.57,0,15.99,0,31.98,0,47.97,0Zm6.08-34.16c0-2.68,0-5.37,0-8.05,0-3.93,0-7.86,0-11.78,0-.79-.06-1.42-1.12-1.41-3.27.03-6.55.02-9.82,0-.74,0-1.09.3-1.08,1.04,0,.52-.01,1.05-.01,1.57,0,7.99,0,15.97,0,23.96,0,4.71,0,9.43,0,14.14,0,2.08.01,2.09,2.01,2.09,2.68,0,5.37,0,8.05,0,1.94,0,1.96-.02,1.96-1.93,0-6.55,0-13.09,0-19.64Zm25.96.21c0-6.42,0-12.83,0-19.25,0-2.38.09-2.2-2.28-2.2-2.36,0-4.71-.02-7.07,0-2.81.03-2.68-.42-2.68,2.59,0,12.57,0,25.14,0,37.71,0,.39.03.79,0,1.18-.07,1.03.41,1.36,1.4,1.34,2.81-.04,5.63-.01,8.44-.02,2.17,0,2.18,0,2.18-2.11,0-6.42,0-12.83,0-19.25Zm-51.92.06c0-6.61,0-13.22,0-19.84,0-1.63-.03-1.66-1.62-1.67-2.81-.02-5.63-.01-8.45,0-1.93,0-1.93.02-1.96,1.94,0,.2,0,.39,0,.59,0,12.57,0,25.14,0,37.71,0,.33,0,.65,0,.98.05,1.54.05,1.56,1.53,1.58,1.64.03,3.27,0,4.91,0,1.51,0,3.01-.02,4.52,0,.74,0,1.08-.33,1.06-1.06-.01-.46,0-.92,0-1.37,0-6.28,0-12.57,0-18.85Zm35.79-.07c0-6.09.02-12.18,0-18.26-.02-3.71.51-3.15-3.25-3.17-2.51-.02-2.48-.38-2.48,2.4,0,12.7,0,25.4,0,38.1,0,.39.02.79,0,1.18-.03.84.38,1.17,1.2,1.13.85-.03,1.7,0,2.55,0,1.95-.01,1.97-.02,1.97-1.92,0-6.48,0-12.96,0-19.44Zm-25.96,0c0-6.09.02-12.18,0-18.26-.02-3.71.51-3.15-3.25-3.18-2.51-.02-2.48-.38-2.48,2.39,0,12.7,0,25.4,0,38.1,0,.39.02.79,0,1.18-.03.84.38,1.17,1.2,1.14.85-.03,1.7,0,2.55,0,1.96-.01,1.97-.02,1.97-1.92,0-6.48,0-12.96,0-19.44Zm51.95,0c0-6.62,0-13.23,0-19.85,0-1.54-.04-1.55-1.5-1.59-.59-.02-1.18-.01-1.77,0-2.51.03-2.49-.38-2.49,2.39,0,12.64,0,25.29,0,37.93,0,.26,0,.52,0,.79.04,1.65.04,1.66,1.62,1.69.65.01,1.31,0,1.97,0,2.17,0,2.18,0,2.18-2.11,0-6.42,0-12.84,0-19.26Zm-77.91.01c0-5.76,0-11.52,0-17.28,0-4.6,0-4.59-4.62-4.19-.71.06-1.11.27-1.1,1.03,0,.39-.01.79-.01,1.18,0,12.83,0,25.66,0,38.49,0,.39.01.79.02,1.18,0,.64.34.94.98.94.85,0,1.7,0,2.55,0,2.17,0,2.18,0,2.18-2.11,0-6.41,0-12.83,0-19.24ZM79.57,15.22c1.04,0,2.09-.02,3.13,0,.84.02,1.17-.36,1.15-1.18-.03-1.31-.03-2.61,0-3.92.02-.8-.27-1.2-1.13-1.19-2.09.03-4.18.02-6.27,0-.74,0-1.05.32-1.04,1.06.02,1.37.03,2.74,0,4.11-.02.88.44,1.12,1.22,1.11.98-.02,1.96,0,2.94,0Zm-13.18-5.26c1.31,0,2.36-.01,3.4,0,.72.01,1.09-.26,1.08-1.02-.02-1.44,0-2.87,0-4.31,0-.65-.35-.94-.98-.94-2.15,0-4.31,0-6.46,0-.63,0-.98.28-.97.94,0,.33-.02.65,0,.98.07,1.36-.55,3.04.28,3.98.87.98,2.59.2,3.67.36Z"/></svg>