<?xml version="1.0" encoding="UTF-8"?><svg id="Layer_1" xmlns="http://www.w3.org/2000/svg" viewBox="0 0 120 120"><defs><style>.cls-1{stroke-width:0px;}</style></defs><path class="cls-1" d="m79.67,119.99c-5.33,0-10.65,0-15.98,0-.24,0-.48-.02-.72,0-.48.04-.68-.15-.67-.65.02-.89.02-1.79,0-2.68,0-.46.21-.6.63-.59.86,0,1.72-.02,2.58,0,.54.02.75-.21.7-.73-.02-.24,0-.48,0-.72,0-8.97.01-17.94-.02-26.91,0-1.05.33-1.81,1.06-2.54,6.89-6.86,13.77-13.74,20.62-20.64,1.88-1.89,4.04-2.93,6.75-2.57.45.06.65-.06.63-.52-.01-.24,0-.48,0-.72,0-5.33.01-10.65,0-15.98,0-2.16.62-4.07,2.15-5.62,2.2-2.23,4.87-2.94,7.85-2.03,2.9.89,4.64,2.95,5.3,5.91.15.67.17,1.36.17,2.05,0,10.52-.01,21.03.01,31.55,0,.99-.28,1.78-.9,2.53-5.3,6.45-10.57,12.93-15.88,19.37-.49.6-.7,1.19-.69,1.96.03,4.78.01,9.55.01,14.33,0,.21.01.41,0,.62-.03.49.19.68.67.67.82-.02,1.65.01,2.47,0,.5-.01.76.12.74.69-.04.89-.02,1.79,0,2.68,0,.39-.15.57-.55.55-.27-.01-.55,0-.82,0-5.36,0-10.72,0-16.08,0Zm6.54-38.13c.22-.43.53-.66.8-.93,2.83-2.85,5.67-5.7,8.51-8.55.27-.27.53-.54.78-.82.95-1.13,1.11-2.63.43-3.95-.63-1.23-1.98-1.94-3.42-1.85-1.12.07-1.9.69-2.65,1.44-6.63,6.64-13.26,13.27-19.91,19.89-.5.5-.71,1-.7,1.71.02,8.69.01,17.39.01,26.08,0,.21,0,.41,0,.62-.01.38.14.58.54.57.24,0,.48,0,.72,0,5.6,0,11.2,0,16.8,0,.24,0,.48-.01.72,0,.45.02.61-.21.59-.63-.01-.27,0-.55,0-.82,0-5.09.02-10.17-.01-15.26,0-.98.26-1.76.9-2.53,5.31-6.44,10.58-12.91,15.89-19.36.44-.54.64-1.07.64-1.77-.02-10.17-.01-20.34-.01-30.51,0-.41,0-.83-.05-1.23-.26-1.86-1.7-3.21-3.51-3.34-1.86-.13-3.48.96-4.02,2.72-.16.53-.19,1.08-.19,1.63,0,6.18,0,12.37-.01,18.55,0,.55.16.97.49,1.41.92,1.24,1.44,2.65,1.46,4.21.03,2.18-.8,4.01-2.33,5.54-3.06,3.06-6.12,6.13-9.18,9.19-.12.12-.25.24-.37.36-.18.17-.36.18-.54,0-.8-.79-1.6-1.59-2.38-2.37Z"/><path class="cls-1" d="m40.98,119.99c-5.33,0-10.65,0-15.98,0-.24,0-.48-.01-.72,0-.42.02-.65-.13-.64-.58,0-.93,0-1.86,0-2.78,0-.39.17-.56.56-.55.82,0,1.65,0,2.47,0,.78-.01.8-.02.8-.82,0-3.26,0-6.53,0-9.79,0-1.72-.03-3.44.01-5.15.02-.69-.18-1.23-.62-1.77-5.28-6.42-10.53-12.87-15.82-19.28-.67-.82-.98-1.64-.97-2.71.03-10.55.03-21.1.01-31.65,0-2.23.6-4.21,2.2-5.81,2.19-2.18,4.83-2.88,7.76-2,2.9.87,4.66,2.93,5.33,5.88.16.71.18,1.43.17,2.15,0,5.15,0,10.31,0,15.46,0,.21,0,.41,0,.62.02.8.02.81.78.74,2.46-.24,4.52.59,6.25,2.31,7,7,13.99,14,21,20.98.71.71,1.01,1.47,1.01,2.47-.02,9.04-.01,18.07-.01,27.11,0,1.32-.1,1.25,1.21,1.25.69,0,1.37.01,2.06,0,.38,0,.57.15.56.54-.01.96,0,1.92,0,2.89,0,.34-.17.5-.51.49-.27,0-.55,0-.82,0-5.36,0-10.72,0-16.08,0Zm-6.43-38.12c-.66.66-1.33,1.34-2.01,2.01-.62.61-.63.61-1.27-.03-3.04-3.03-6.08-6.07-9.11-9.11-.22-.22-.43-.44-.63-.68-2.23-2.61-2.37-6.4-.3-9.14.36-.48.47-.95.47-1.51-.01-6.11,0-12.23,0-18.34,0-.38,0-.76-.05-1.13-.29-2-1.94-3.39-3.94-3.34-1.95.05-3.49,1.48-3.72,3.46-.04.37-.06.75-.06,1.13,0,10.17,0,20.34-.02,30.51,0,.7.21,1.23.65,1.76,5.26,6.39,10.48,12.82,15.75,19.2.75.9,1.07,1.82,1.06,2.99-.05,4.91-.02,9.82-.02,14.74,0,.34.02.69,0,1.03-.03.49.18.7.67.66.2-.02.41,0,.62,0,5.6,0,11.2,0,16.8,0,.24,0,.48-.01.72,0,.45.02.62-.2.59-.63-.01-.17,0-.34,0-.52,0-8.73,0-17.45.01-26.18,0-.68-.21-1.15-.68-1.62-6.65-6.62-13.27-13.25-19.91-19.88-.32-.31-.64-.63-1-.88-1.11-.76-2.32-.84-3.52-.27-1.2.57-1.89,1.55-1.99,2.91-.09,1.23.41,2.18,1.26,3.03,2.97,2.96,5.92,5.93,8.88,8.9.26.26.58.49.78.93Z"/><path class="cls-1" d="m37.02,27.94c-1.47,1.47-2.87,2.86-4.37,4.35-.81-.85-1.56-1.65-2.32-2.43-.25-.25-.25-.46,0-.69.15-.14.29-.29.44-.44C40.03,19.49,49.29,10.23,58.54.98c.54-.54,1.08-1.05,1.94-.97.47.04.88.14,1.21.48.19.2.39.39.58.58,9.19,9.18,18.37,18.35,27.56,27.53.07.07.15.14.22.22.76.77.78.63,0,1.41-.53.54-1.08,1.06-1.59,1.61-.3.32-.52.33-.83,0-1.03-1.06-2.08-2.1-3.13-3.13-.24-.23-.42-.55-.84-.66-.19.35-.1.73-.1,1.09,0,9.34-.04,18.69.02,28.03.02,2.34-1.04,2.77-2.74,2.76-13.64-.03-27.27-.01-40.91-.01-.1,0-.21,0-.31,0-1.83-.02-2.47-.66-2.48-2.5,0-9.41,0-18.82,0-28.24,0-.36.07-.74-.13-1.24Zm23.35,28.15c6.11,0,12.23,0,18.34,0,1.03,0,1.04,0,1.04-1,0-10.1,0-20.2.01-30.29,0-.6-.18-1.03-.6-1.44-6.06-6.04-12.1-12.09-18.15-18.13-.64-.64-.65-.64-1.27-.02-6.05,6.05-12.09,12.1-18.15,18.13-.42.42-.59.85-.59,1.45.01,10.1,0,20.2.01,30.29,0,1.01,0,1.01,1.02,1.02.24,0,.48,0,.72,0,5.87,0,11.75,0,17.62,0Z"/><path class="cls-1" d="m60.38,32c1.06-1.03,2.01-2.02,3.03-2.94,2.38-2.14,5.1-2.6,8.03-1.36,4.43,1.88,5.8,7.58,2.78,11.34-.3.37-.64.72-.98,1.06-3.66,3.67-7.33,7.34-11,11-.22.22-.43.45-.67.63-.75.57-1.63.57-2.38,0-.19-.15-.36-.32-.53-.49-3.81-3.81-7.63-7.63-11.44-11.44-1.53-1.53-2.37-3.35-2.28-5.54.12-3.03,1.56-5.25,4.28-6.52,2.73-1.27,5.38-.89,7.74.98.99.78,1.83,1.76,2.74,2.65.2.19.4.37.67.63Zm11.61,2.34c0-.45-.12-.98-.38-1.48-1.08-2.12-3.82-2.64-5.58-.99-1.23,1.15-2.42,2.34-3.56,3.58-1.46,1.58-2.61,1.71-4.2-.03-1.18-1.29-2.45-2.51-3.74-3.68-1.03-.94-2.29-1.07-3.56-.55-1.28.52-1.99,1.51-2.16,2.89-.16,1.32.4,2.32,1.3,3.21,3.21,3.2,6.41,6.4,9.61,9.61.69.69.59.71,1.34-.04,2.36-2.35,4.71-4.7,7.07-7.05.9-.9,1.8-1.79,2.7-2.69.74-.73,1.16-1.6,1.16-2.77Z"/></svg>