<?xml version="1.0" encoding="UTF-8"?><svg id="Layer_1" xmlns="http://www.w3.org/2000/svg" viewBox="0 0 120 120"><defs><style>.cls-1{fill:none;stroke:#000;stroke-linecap:round;stroke-linejoin:round;stroke-width:6px;}</style></defs><path class="cls-1" d="m58.73,2.78c-4.84,4.27-9.4,8.83-15.04,12.16-7.95,4.69-16.33,7.89-25.57,8.84-5.25.54-5.78,2.06-5.89,6.18-.21,7.33-.15,14.67.73,21.94.86,7.13,2.92,14.07,5.86,20.62,5.8,12.95,14.29,24,24.88,33.39,4.19,3.72,8.64,7.16,13.38,10.22,1.87,1.21,3.51,1.76,5.6.33,14.84-10.13,27.49-22.35,35.96-38.38,5.02-9.49,8.08-19.65,8.92-30.43.5-6.34.22-12.67.26-19,.02-2.81-1.27-4.13-4.56-4.55-8.44-1.08-16.41-3.44-23.94-7.51-5.87-3.17-11.07-7.11-15.67-11.87-1.32-1.36-2.61-2.38-4.61-1.94"/><path class="cls-1" d="m60.37,17.52c-3.06.96-4.97,3.57-7.47,5.33-8.1,5.68-17.03,9.24-26.6,11.35-1.56.34-2.23,1.06-2.3,2.65-.61,13.82,2.41,26.65,9.44,38.7,6.75,11.57,16.05,20.55,26.49,28.57,9.01-6.39,16.74-13.81,23.07-22.7,7.17-10.07,11.51-21.22,13.01-33.44.45-3.66.06-7.42.08-11.13,0-1.79-.93-2.28-2.61-2.68-12.25-2.9-23.47-7.89-32.77-16.64"/><path class="cls-1" d="m78.71,47.33c-7.64,7.64-15.29,15.29-23.26,23.26-4.36-4.36-8.4-8.4-12.45-12.45"/></svg>