<?xml version="1.0" encoding="UTF-8"?><svg id="Layer_1" xmlns="http://www.w3.org/2000/svg" viewBox="0 0 120 120"><defs><style>.cls-1{stroke-width:0px;}</style></defs><path class="cls-1" d="m38.69,73.99c-.3-.91-.88-1.42-1.31-2.03-15.75-22.11-8.66-53.29,15.2-66.3,27.82-15.17,61.99,1.6,66.86,33.04,3.82,24.62-13.07,47.85-37.64,51.73-12.35,1.95-23.76-.7-33.99-8.03-.25-.18-.52-.36-.75-.56-.51-.43-.96-.47-1.47.04-2.51,2.53-5.04,5.05-7.58,7.56-.41.41-.42.86-.33,1.38.74,4.13-.73,7.45-3.64,10.32-5.21,5.15-10.36,10.36-15.56,15.52-3.36,3.33-7.8,4.21-11.93,2.46C0,116.33-2.08,108.21,2.36,102.64c.51-.63,1.08-1.22,1.66-1.79,4.91-4.92,9.86-9.8,14.72-14.77,2.87-2.93,6.18-4.39,10.3-3.77.65.1,1.2.07,1.72-.45,2.65-2.66,5.33-5.28,7.94-7.87Zm35.7,12.95c22.85.07,41.35-18.3,41.47-41.19.13-22.94-18.32-41.58-41.23-41.63-22.94-.06-41.52,18.4-41.58,41.3-.06,22.97,18.34,41.45,41.33,41.52Zm-63.75,28.91c1.92.03,3.54-.65,4.9-2,5.36-5.35,10.72-10.69,16.06-16.05.44-.44.84-.94,1.17-1.46,2.58-4.07.18-9.31-4.58-10.04-2.42-.38-4.39.46-6.09,2.18-4.36,4.4-8.75,8.77-13.13,13.15-1.1,1.11-2.27,2.16-3.28,3.35-1.78,2.1-2.12,4.52-.99,7.02,1.13,2.51,3.17,3.78,5.94,3.85Zm25.12-29.93c2.22-2.22,4.5-4.51,6.79-6.79.73-.73.01-1.06-.35-1.51-.42-.51-.81-.68-1.37-.12-1.83,1.87-3.7,3.71-5.55,5.56q-1.42,1.42.14,2.77s.11.03.33.09Z"/><path class="cls-1" d="m90.83,71.36c-.6.02-1.13-.43-1.66-.87-1.06-.89-2.27-1.33-3.64-1.18-2.11.24-3.62,1.74-3.99,3.9-.45,2.61-.81,2.93-3.38,2.92-2.69,0-5.38-.01-8.08-.06-2.14-.04-2.53-.42-2.87-2.59-.62-3.99-4.21-5.52-7.55-3.22-1.94,1.33-2.37,1.31-4.01-.32-1.95-1.94-3.9-3.89-5.83-5.86-1.55-1.58-1.58-2.13-.32-3.86,2.51-3.45.98-7.05-3.28-7.69-1.74-.26-2.28-.82-2.29-2.58-.02-3,0-6.01.03-9.01.02-1.9.48-2.4,2.4-2.63,2.05-.25,3.55-1.21,4.22-3.2.54-1.6.15-3.06-.87-4.41-1.31-1.74-1.27-2.34.24-3.86,2.03-2.04,4.08-4.07,6.14-6.08,1.43-1.4,2.08-1.42,3.72-.18,3.24,2.44,6.93,1,7.62-2.96.41-2.34.71-2.61,3.04-2.61,2.82,0,5.63,0,8.45.03,2.04.02,2.48.42,2.82,2.44.7,4.23,4.23,5.67,7.76,3.15,1.46-1.04,2.2-1.04,3.45.2,2.14,2.1,4.26,4.24,6.36,6.39,1.33,1.37,1.34,2.04.2,3.58-1.55,2.1-1.7,3.88-.5,5.71.81,1.24,2,1.83,3.43,2.05,2.28.34,2.61.71,2.61,3.01,0,2.82-.02,5.63-.07,8.45-.03,1.94-.4,2.35-2.36,2.7-1.34.24-2.52.71-3.42,1.78-1.4,1.66-1.44,3.78-.1,5.72,1.46,2.13,1.44,2.53-.33,4.3-1.95,1.94-3.91,3.88-5.87,5.82-.54.53-1.08,1.05-2.07,1.05Zm-16.57.67v.02c.69,0,1.38-.04,2.06.01.89.07,1.32-.27,1.62-1.14,1.66-4.85,7.43-7.17,12-4.78.67.35,1.12.3,1.63-.25.99-1.04,2.01-2.07,3.06-3.04.62-.57.57-1.07.27-1.81-2.07-5.03-.13-9.75,4.9-11.84.93-.39,1.2-.89,1.16-1.81-.05-1.12-.05-2.26.02-3.38.06-1.06-.19-1.68-1.35-2.05-2.05-.65-3.54-2.08-4.51-4.01-1.25-2.5-1.37-5.06-.14-7.59.42-.87.41-1.44-.33-2.1-.98-.87-1.9-1.82-2.78-2.8-.61-.68-1.14-.74-1.95-.33-1.79.9-3.72,1.07-5.67.57-2.93-.76-5-2.55-6.03-5.4-.33-.92-.77-1.29-1.75-1.24-1.25.07-2.5.06-3.75,0-.92-.04-1.52.17-1.79,1.18-.24.9-.76,1.71-1.37,2.44-2.49,3.01-6.49,4.02-10.18,2.39-1.06-.47-1.69-.36-2.41.47-.82.94-1.74,1.8-2.66,2.65-.59.55-.74,1.04-.32,1.8.53.93.77,1.98.85,3.05.28,3.85-1.83,7.24-5.55,8.67-.99.38-1.38.84-1.32,1.89.08,1.25.03,2.5,0,3.75-.02.82.15,1.34,1.07,1.67,4.95,1.77,7.18,7.49,4.75,12-.37.69-.19,1.13.32,1.62.91.86,1.76,1.78,2.65,2.66q1.08,1.08,2.52.47c4.2-1.75,9.14-.06,10.95,4.09.82,1.88,1.86,2.39,3.65,2.16.12-.02.25,0,.38,0Z"/><path class="cls-1" d="m74.35,62.37c-9.4-.05-16.81-7.73-16.74-17.35.07-8.88,7.9-16.44,16.96-16.37,9.32.06,16.77,7.71,16.75,17.18-.02,9.01-7.8,16.6-16.97,16.55Zm.16-4.1c6.98-.02,12.71-5.71,12.73-12.64.02-7.06-5.69-12.86-12.7-12.89-6.99-.04-12.87,5.81-12.83,12.76.04,7.09,5.76,12.79,12.8,12.77Z"/></svg>