<?xml version="1.0" encoding="UTF-8"?><svg id="Layer_1" xmlns="http://www.w3.org/2000/svg" viewBox="0 0 120 120"><defs><style>.cls-1{fill:none;stroke:#000;stroke-linecap:round;stroke-linejoin:round;stroke-width:4px;}</style></defs><path class="cls-1" d="m4.04,57.84h82.18v-26.11"/><path class="cls-1" d="m58.7,31.73v25.71"/><path class="cls-1" d="m30.97,31.73v25.51"/><path class="cls-1" d="m108.7,87.4c.6-.71,1.42-.61,2.23-.61,3.31-.01,5.64-2.32,5.66-5.66.03-4.32.13-8.64-.03-12.95-.18-4.83-.86-9.62-1.76-14.38-.75-3.95-1.36-7.94-1.82-11.94-.59-5.05-3.48-9.13-8.34-10.29-1.43-.34-2.97-.46-4.44-.41-4.66.17-9.36.33-13.96.18-8.31-.26-16.61-.07-24.9-.18-9.17-.13-18.35-.03-27.53-.03-6.28,0-12.55-.02-18.83,0-2.29,0-4.59.09-6.88.2-2.66.13-4.64,2.46-4.65,5.46-.02,5.94,0,11.88,0,17.81,0,8.57.18,17.14-.08,25.71-.13,4.34,2.64,7,6.56,6.5.73-.09,1.54-.22,2.22.28"/><path class="cls-1" d="m94.12,75.05c-5.72,1.3-8.15,5.98-7.87,9.71.53,6.81,7.21,10.58,13.11,7.86,3.78-1.74,5.88-5.25,5.04-10.08-.65-3.79-2.93-6.25-7.47-7.46-.82-.22-1.75-.03-2.62-.03"/><path class="cls-1" d="m86.03,57.64c2.43,2.36,4.93,4.66,7.25,7.12.82.87,1.64.99,2.67.99,6.61-.02,13.23,0,19.84,0"/><path class="cls-1" d="m81.37,86.79c-13.29,0-26.59,0-39.88,0-.75,0-1.54-.2-2.23.3"/><path class="cls-1" d="m24.49,75.05c-3.75.93-6.49,2.83-7.53,6.87-1.2,4.63.5,7.67,3.72,10.08,2.53,1.89,6.83,2.35,10.07.03,3.92-2.81,4.88-6.52,3.63-10.9-1.09-3.79-4.91-6.08-9.69-6.08"/></svg>