<?xml version="1.0" encoding="UTF-8"?><svg id="Layer_1" xmlns="http://www.w3.org/2000/svg" viewBox="0 0 120 120"><defs><style>.cls-1{stroke:#000;stroke-miterlimit:10;}</style></defs><path class="cls-1" d="m72.32,60.28c.67-.24.92-.62,1.22-.92,5.9-5.89,11.79-11.79,17.69-17.68,1.37-1.37,1.52-1.37,2.88,0,8.29,8.28,16.59,16.57,24.88,24.85.28.28.58.56.81.88.32.45.26.94-.09,1.3-.34.35-.84.41-1.29.11-.24-.16-.45-.37-.65-.57-1.01-1-2.01-2.01-3.02-3.01-.25-.25-.45-.57-.89-.7-.21.37-.11.77-.11,1.14,0,9.17,0,18.35,0,27.52,0,1.83-.17,2.01-1.98,2.01-9.76,0-19.51,0-29.27,0-1.49,0-1.32-.13-1.33,1.36,0,1.38,0,2.77,0,4.15,0,1.89-.13,2.02-2.07,2.02-4.81,0-9.61,0-14.42,0-7.75,0-15.51,0-23.26,0-.29,0-.58,0-.87,0-1.26-.03-1.52-.29-1.52-1.57,0-1.71,0-3.42,0-5.13,0-.79-.02-.79-.78-.82-.29-.01-.58,0-.87,0-9.65,0-19.3,0-28.94,0-1.85,0-2.01-.16-2.01-1.98,0-9.14,0-18.28,0-27.41,0-.42.09-.86-.12-1.28-.43.09-.62.43-.87.68-1.04,1.02-2.06,2.06-3.09,3.08-.18.18-.36.37-.56.51-.43.3-.94.25-1.3-.09-.35-.33-.42-.85-.13-1.29.18-.27.42-.5.65-.73,8.39-8.39,16.79-16.78,25.19-25.17.18-.18.35-.37.55-.53.54-.42.94-.43,1.48,0,.26.2.48.45.71.68,5.84,5.84,11.69,11.69,17.53,17.53.18.18.36.36.54.54.58.55.59.56,1.19-.04,3.51-3.5,7.02-6.98,10.5-10.51,1.18-1.2,1.6-1.27,2.83-.02,3.37,3.43,6.79,6.8,10.18,10.21.28.28.48.64.66.88Zm6.73,24.81c0-4.77-.02-9.53.02-14.3,0-.79-.23-1.35-.79-1.91-5.81-5.77-11.59-11.57-17.38-17.36-.15-.15-.32-.3-.46-.46-.25-.29-.49-.25-.72.02-.12.14-.26.26-.39.39-5.84,5.84-11.67,11.69-17.54,17.51-.57.57-.77,1.14-.76,1.92.03,5.68.01,11.35.01,17.03,0,3.93,0,7.86,0,11.79,0,.96.02.98.96.98,2,0,4,0,6,0,1.35,0,2.69-.01,4.04,0,.5,0,.76-.15.72-.68-.02-.29,0-.58,0-.87,0-5.46,0-10.92,0-16.38,0-1.38.29-1.67,1.66-1.67,3.75,0,7.5,0,11.24,0,1.44,0,1.73.3,1.74,1.72,0,2.87,0,5.75,0,8.62,0,2.8,0,5.6,0,8.41,0,.83.02.84.86.85,1.24.01,2.47,0,3.71,0,2.04,0,4.08,0,6.11,0,.92,0,.93-.01.95-.87,0-.22,0-.44,0-.65,0-4.69,0-9.39,0-14.08Zm2.29-13.12c-.24.4-.18.66-.18.9,0,6.4,0,12.81,0,19.21,0,.15.01.29,0,.44-.02.41.16.59.58.59.95,0,1.89.01,2.84,0,.75-.01.75-.03.78-.82,0-.22,0-.44,0-.65,0-3.6,0-7.2,0-10.81,0-2.08.1-2.18,2.13-2.18,2.4,0,4.8,0,7.2,0,1.99,0,2.06.07,2.06,2.11,0,3.82,0,7.64,0,11.46,0,.87.02.89.83.89,4.44,0,8.88,0,13.32,0,.75,0,.75-.03.79-.83,0-.15,0-.29,0-.44,0-9.53,0-19.07.01-28.6,0-.75-.21-1.29-.74-1.82-5.86-5.82-11.69-11.67-17.53-17.51-.23-.23-.42-.51-.75-.61-.28.11-.46.35-.66.56-5.74,5.74-11.48,11.47-17.21,17.21-.13.13-.25.26-.38.39-.23.21-.25.42-.02.65.21.2.41.41.61.62,3.83,3.83,7.67,7.67,11.5,11.5.23.23.48.46.67.72.33.46.29.91-.06,1.29-.38.4-.87.45-1.37.08-.26-.19-.48-.44-.72-.67-1.21-1.2-2.41-2.41-3.68-3.68Zm-42.43.13c-.36.05-.5.29-.67.46-1.09,1.08-2.16,2.16-3.25,3.24-.21.2-.41.42-.65.58-.44.3-.95.23-1.29-.12-.35-.36-.41-.83-.08-1.29.21-.29.48-.55.74-.8,3.81-3.81,7.62-7.62,11.43-11.42.21-.21.41-.42.62-.62.22-.22.25-.42.01-.65-.16-.15-.31-.31-.46-.46-5.69-5.69-11.37-11.38-17.06-17.06-.15-.15-.31-.3-.46-.46-.22-.23-.43-.23-.65,0-.2.21-.41.41-.62.62-5.74,5.74-11.47,11.49-17.23,17.21-.58.58-.86,1.15-.85,1.99.05,3.75.02,7.5.02,11.25,0,5.86,0,11.72,0,17.58,0,.96.01.98.95.98,4.33,0,8.66,0,12.99,0,.94,0,.95-.01.95-.98,0-2.98,0-5.97,0-8.95,0-1.06-.02-2.11,0-3.17.03-1.03.37-1.35,1.41-1.37.76-.02,1.53,0,2.29,0,2.07,0,4.15,0,6.22,0,1.16,0,1.47.34,1.51,1.5,0,.25,0,.51,0,.76,0,3.6,0,7.21,0,10.81,0,.29.01.58,0,.87,0,.36.17.52.53.52,1.02,0,2.04-.01,3.06,0,.49,0,.65-.23.61-.67-.01-.18,0-.36,0-.55,0-6.26,0-12.52,0-18.78,0-.32.06-.65-.09-1.02Zm26.41,19.77c0-2.62,0-5.24,0-7.86,0-.77-.03-.8-.8-.8-2.95-.01-5.9,0-8.85,0-.84,0-.86.02-.86.85,0,5.24,0,10.48,0,15.73,0,.9.02.91.91.92,2.88,0,5.75,0,8.63,0,.95,0,.97-.01.97-.97,0-2.62,0-5.24,0-7.86Zm-32.64-4.95c0-1.82-.02-3.64,0-5.46,0-.56-.19-.78-.75-.77-1.93.02-3.86.03-5.79,0-.62,0-.71.29-.71.81.01,3.6,0,7.21.01,10.81,0,.78.02.8.79.81,1.82.01,3.64.01,5.46,0,.97,0,.98-.01.98-.95,0-1.75,0-3.49,0-5.24Zm54.76-.08c0,1.82,0,3.63,0,5.45,0,.79.03.81.78.82,1.89.01,3.78.01,5.67,0,.78,0,.81-.03.81-.79,0-3.6,0-7.2,0-10.79,0-.8-.02-.82-.78-.83-1.89-.02-3.78-.02-5.67,0-.77,0-.8.04-.81.8-.01,1.78,0,3.56,0,5.34Z"/><path class="cls-1" d="m53.46,31.73c-.02,3.61-2.97,6.52-6.58,6.47-3.54-.04-6.42-2.98-6.4-6.54.02-3.56,2.92-6.47,6.47-6.48,3.6-.01,6.53,2.93,6.51,6.55Zm-6.46-4.43c-2.44-.02-4.47,2-4.46,4.42.02,2.37,2.02,4.36,4.4,4.38,2.42.01,4.37-1.9,4.42-4.32.05-2.48-1.88-4.46-4.36-4.48Z"/><path class="cls-1" d="m58.43,32.75c-.58,0-1.16.02-1.74,0-.72-.03-1.17-.44-1.18-1.01-.01-.58.43-1.04,1.14-1.06,1.19-.04,2.39-.03,3.58,0,.73.02,1.17.44,1.18,1.02.01.62-.46,1.03-1.25,1.06-.58.02-1.16,0-1.74,0Z"/><path class="cls-1" d="m35.44,32.75c-.58,0-1.16.02-1.74,0-.72-.03-1.17-.44-1.18-1.02-.01-.58.43-1.03,1.14-1.06,1.19-.04,2.39-.04,3.58,0,.76.02,1.15.41,1.16,1.02.01.65-.41,1.01-1.23,1.06-.04,0-.07,0-.11,0-.54,0-1.09,0-1.63,0h0Z"/><path class="cls-1" d="m50.78,23.21c.02-.08.04-.23.11-.36.63-1.1,1.24-2.22,1.91-3.3.33-.53.86-.63,1.33-.38.52.27.73.81.42,1.39-.62,1.15-1.28,2.28-1.97,3.39-.3.49-.79.58-1.23.37-.45-.21-.63-.58-.57-1.13Z"/><path class="cls-1" d="m40.24,44.33c-.7-.02-1.22-.73-.89-1.39.6-1.2,1.28-2.36,1.98-3.5.33-.53.87-.6,1.33-.33.47.27.7.79.42,1.31-.63,1.19-1.32,2.34-2.01,3.49-.17.29-.48.44-.84.42Z"/><path class="cls-1" d="m43.18,23.38c.02.45-.19.76-.59.96-.37.19-.72.12-1.02-.13-.19-.16-.35-.37-.48-.58-.54-.91-1.06-1.82-1.58-2.74-.09-.16-.18-.32-.22-.5-.14-.51.06-.95.51-1.2.45-.25.88-.15,1.18.21.3.36.53.78.77,1.19.39.66.76,1.32,1.14,1.99.14.25.29.51.28.81Z"/><path class="cls-1" d="m39.69,36.51c0,.4-.21.7-.54.89-1.06.63-2.12,1.26-3.21,1.84-.59.32-1.17.16-1.45-.29-.31-.5-.17-1.1.45-1.48,1.05-.64,2.11-1.28,3.2-1.85.77-.4,1.56.09,1.54.88Z"/><path class="cls-1" d="m58.43,39.39c-.1-.03-.25-.05-.38-.12-1.1-.63-2.22-1.24-3.29-1.91-.53-.33-.64-.97-.35-1.43.26-.42.82-.62,1.34-.34,1.15.62,2.27,1.28,3.39,1.96.46.28.57.74.39,1.24-.18.48-.57.62-1.09.59Z"/><path class="cls-1" d="m50.77,40.06c0-.45.16-.79.57-.99.37-.19.71-.12,1.02.11.17.13.32.31.42.49.58,1,1.16,2.02,1.73,3.03.18.33.28.66.1,1.04-.34.69-1.23.86-1.7.2-.81-1.12-1.45-2.34-2.07-3.58-.05-.09-.05-.21-.06-.3Z"/><path class="cls-1" d="m35.42,23.99c.14.04.36.07.55.17,1.07.61,2.16,1.2,3.19,1.87.78.51.7,1.47-.09,1.82-.33.15-.64.09-.94-.07-1.07-.61-2.14-1.21-3.2-1.84-.44-.26-.68-.66-.53-1.19.13-.48.46-.72,1.03-.75Z"/><path class="cls-1" d="m55.3,27.93c-.4,0-.72-.16-.91-.5-.2-.38-.2-.78.09-1.12.14-.16.31-.3.5-.41.93-.56,1.88-1.1,2.82-1.64.12-.07.25-.14.39-.19.5-.16.94-.07,1.25.38.29.42.19.98-.25,1.36-.16.14-.35.25-.54.36-.85.49-1.7.98-2.55,1.46-.25.14-.5.29-.8.31Z"/><path class="cls-1" d="m47.99,20.25c0,.61.03,1.23,0,1.84-.04.66-.44,1.05-1,1.05-.56,0-.99-.38-1.01-1.04-.04-1.26-.04-2.53,0-3.8.02-.67.44-1.06,1-1.06.55,0,.98.4,1.01,1.05.04.65,0,1.3,0,1.95Z"/><path class="cls-1" d="m47.99,43.26c0,.54.01,1.08,0,1.63-.03.83-.39,1.25-1.03,1.24-.61,0-.98-.39-1-1.16-.03-1.19-.03-2.39,0-3.58.02-.73.44-1.16,1.03-1.15.58.01.97.45,1,1.18.02.61,0,1.23,0,1.84Z"/><path class="cls-1" d="m60.07,58.33c2.25,0,4.1,1.85,4.08,4.1-.02,2.21-1.83,4-4.05,4.01-2.28,0-4.08-1.81-4.07-4.09.02-2.22,1.82-4.02,4.04-4.02Zm1.99,4.1c.02-1.08-.81-1.96-1.89-2-1.11-.04-2.07.84-2.09,1.93-.03,1.05.96,2.04,2.02,2.03,1.06-.01,1.94-.89,1.96-1.96Z"/><path class="cls-1" d="m96.73,54.82c.01,2.27-1.83,4.13-4.07,4.11-2.19-.02-4.02-1.86-4.04-4.05-.02-2.24,1.86-4.13,4.09-4.11,2.21.02,4.01,1.83,4.03,4.05Zm-2.05-.03c-.04-1.1-1-1.98-2.1-1.92-1.07.06-1.9.96-1.87,2.03.03,1.13.95,1.97,2.09,1.91,1.04-.05,1.92-1,1.89-2.03Z"/><path class="cls-1" d="m27.48,50.77c2.23.03,4.12,1.97,4.05,4.17-.07,2.19-1.95,4.02-4.12,3.99-2.22-.02-4.12-1.98-4.05-4.17.07-2.19,1.95-4.02,4.12-3.99Zm-.04,6.04c1.1,0,2-.9,1.99-2-.01-1.1-.94-1.98-2.04-1.95-1.07.03-1.91.88-1.92,1.95-.02,1.12.86,2,1.98,2Z"/></svg>