<?xml version="1.0" encoding="UTF-8"?>
<svg id="a" data-name="Layer 1" xmlns="http://www.w3.org/2000/svg" width="15in" height="4.419in" viewBox="0 0 1080 318.154">
  <g>
    <path d="m240.19,0H.003v192.052s36.272-42.448,120.786-27.017c13.365,2.44,25.589,4.135,36.723,5.29v-57.368c0-.276-.353-.37-.497-.135-5.711,9.327-16.343,15.172-27.986,14.206-7.664-.636-14.407-4.114-19.292-9.306-.167-.177-.026-.466.217-.454,20.379,1.058,38.662-10.464,47.053-27.949.125-.26-.193-.507-.421-.329-4.478,3.503-10.026,5.732-16.13,6.103-7.455.452-14.419-1.952-19.838-6.262-.191-.152-.092-.459.15-.481,17.565-1.619,32.148-12.58,39.128-27.639.133-.286-.234-.528-.443-.292-4.067,4.608-9.929,7.619-16.554,7.9-5.962.253-11.495-1.751-15.781-5.249-.188-.154-.086-.459.156-.477,16.813-1.294,32.307-13.18,36.453-28.764.073-.273.436-.273.509,0,4.145,15.584,19.627,27.469,36.44,28.764.242.019.345.323.156.477-4.286,3.498-9.819,5.502-15.781,5.249-6.625-.282-12.488-3.292-16.555-7.9-.209-.236-.575.006-.443.292,6.98,15.059,21.564,26.02,39.128,27.639.243.022.341.329.15.481-5.419,4.309-12.383,6.714-19.838,6.262-6.104-.37-11.653-2.6-16.13-6.103-.227-.178-.546.069-.421.329,8.391,17.484,26.674,29.007,47.053,27.949.243-.013.384.277.217.454-4.885,5.192-11.628,8.67-19.292,9.307-11.643.966-22.275-4.878-27.986-14.206-.144-.236-.497-.142-.497.135v58.507c46.344,3.335,69.751-3.221,69.751-3.221V0Z" fill="#003765" stroke-width="0"/>
    <path d="m237.887,221.437c-21.402,7.428-41.006,6.624-85.266,48.339-9.395,8.855-27.917,19.518-38.405,23.884-18.536,8.048-41.437,9.89-59.862,1.432-9.671-4.318-17.921-10.391-24.595-17.848,4.95.845,9.679,1.953,14.367,2.31,29.068,2.212,48.307-3.475,73.161-19.463,13.718-8.251,26.131-20.312,40.264-29.089,23.927-13.809,54.025-16.243,80.336-9.565h0Z" fill="#003765" stroke-width="0"/>
    <path d="m90.334,177.758c14.473.822,52.754,8.995,67.365,9.847,29.868,1.742,52.246,3.12,81.972-2.589-22.375,22.063-55.049,28.912-85.621,28.441-13.569-.216-43.64-5.292-61.113-8.123-36.979-5.99-63.067,2.564-92.252,8.722,0,0,31.848-39.581,89.648-36.299Z" fill="#003765" stroke-width="0"/>
    <path d="m6.898,238.497c7.878-7.812,41.956-24.914,90.947-20.423,11.945,1.095,24.221,4.232,35.977,9.094-2.016,2.864-37.638,47.281-96.578,32.082-10.135-2.614-25.757-11.87-30.347-20.752h0Z" fill="#003765" stroke-width="0"/>
    <path d="m235.059,232.638c-17.459,6.312-30.031,11.669-44.644,22.669-12.991,9.779-33.415,32.661-51.489,42.69-20.869,11.764-48.15,16.666-48.15,16.666,14.213,3.259,24.487,3.378,24.487,3.378,14.372.619,28.6-1.288,43.196-6.15,12.103-4.031,27.635-11.779,39.544-22.372,1.285-1.143,4.677-4.227,5.882-5.356,3.28-3.312,6.571-6.781,9.506-10.407,9.536-11.991,17.285-25.39,21.778-41.155l-.11.037Z" fill="#003765" stroke-width="0"/>
  </g>
  <g>
    <g>
      <path d="m323.26,59.001h10.697c-1.355,10.82-9.592,18.134-20.965,18.134-12.601,0-22.128-9.097-22.128-21.7s9.527-21.7,22.128-21.7c11.373,0,19.61,7.316,20.965,18.136h-10.697c-1.105-5.226-4.794-8.423-10.329-8.423-6.821,0-11.557,5.042-11.557,11.987s4.736,11.987,11.557,11.987c5.535,0,9.223-3.195,10.329-8.421Z" fill="#003765" stroke-width="0"/>
      <path d="m352.54,34.531v41.819h-10.395v-41.819h10.395Z" fill="#003765" stroke-width="0"/>
      <path d="m396.712,43.817h-13.348v32.534h-10.33v-32.534h-13.348v-9.285h37.025v9.285Z" fill="#003765" stroke-width="0"/>
      <path d="m444.546,34.531l-16.481,29.213v12.607h-10.456v-12.607l-16.543-29.213h11.501l10.21,18.203,10.268-18.203h11.501Z" fill="#003765" stroke-width="0"/>
      <path d="m507.86,55.435c0,12.173-9.527,21.7-22.132,21.7s-22.128-9.527-22.128-21.7,9.527-21.7,22.128-21.7,22.132,9.529,22.132,21.7Zm-10.513,0c0-6.577-4.856-11.987-11.619-11.987s-11.619,5.41-11.619,11.987,4.859,11.987,11.619,11.987,11.619-5.408,11.619-11.987Z" fill="#003765" stroke-width="0"/>
      <path d="m525.41,43.694v8.857h17.956v9.041h-17.956v14.759h-10.395v-41.819h31.242v9.162h-20.847Z" fill="#003765" stroke-width="0"/>
    </g>
    <g>
      <path d="m695.825,241.792l-13.632,41.819h-9.784l-8.376-25.495-8.376,25.495h-9.78l-13.636-41.819h10.945l7.765,25.8,8.803-25.8h8.559l8.807,25.8,7.765-25.8h10.941Z" fill="#003765" stroke-width="0"/>
      <path d="m723.952,276.398h-17.701l-2.767,7.193h-11.065l17.766-41.799h9.956l17.705,41.799h-11.065l-2.829-7.193Zm-3.381-8.666l-5.469-14.076-5.469,14.076h10.939Z" fill="#003765" stroke-width="0"/>
      <path d="m777.582,254.773h-10.457c-.553-3.136-2.458-5.288-6.889-5.288-3.691,0-6.087,1.413-6.087,4.121,0,2.398,1.721,3.443,5.042,4.121l5.845,1.229c7.688,1.599,12.608,4.737,12.608,11.934,0,8.364-6.889,13.529-17.347,13.529-9.409,0-17.896-4.489-18.879-14.822h10.453c.676,3.691,3.813,6.027,8.733,6.027,3.691,0,5.906-1.415,5.906-3.752,0-1.477-.799-3.015-4.428-3.691l-6.889-1.477c-8.241-1.784-12.116-5.534-12.116-12.178,0-8.364,6.767-13.531,16.606-13.531,6.767,0,16.855,2.523,17.9,13.777Z" fill="#003765" stroke-width="0"/>
      <path d="m824.778,241.792v41.811h-10.331v-15.679h-17.031v15.679h-10.393v-41.811h10.393v16.785h17.031v-16.785h10.331Z" fill="#003765" stroke-width="0"/>
      <path d="m846.114,241.792v41.811h-10.393v-41.811h10.393Z" fill="#003765" stroke-width="0"/>
      <path d="m895.326,241.792v41.811h-7.993l-20.045-22.935v22.935h-10.393v-41.811h7.932l20.167,23.55v-23.55h10.331Z" fill="#003765" stroke-width="0"/>
      <path d="m947.739,260.124v23.495h-7.75l-.43-5.106c-3.015,3.691-7.381,5.904-13.226,5.904-13.099,0-22.262-9.286-22.262-21.279,0-13.04,9.593-22.143,22.324-22.143,10.273,0,19.129,5.72,20.914,15.684h-10.949c-1.786-4.858-5.968-6.273-9.72-6.273-7.193,0-12.055,5.106-12.055,12.485,0,6.582,4.739,12.057,12.116,12.057,4.862,0,8.552-2.462,10.641-6.521l-11.993-.123v-8.18h22.389Z" fill="#003765" stroke-width="0"/>
      <path d="m988.556,251.079h-13.351v32.543h-10.332v-32.543h-13.351l1.897-9.288h33.24l1.897,9.288Z" fill="#003765" stroke-width="0"/>
      <path d="m1034.66,262.707c0,12.179-9.532,21.711-22.143,21.711s-22.139-9.532-22.139-21.711,9.532-21.711,22.139-21.711,22.143,9.534,22.143,21.711Zm-10.519,0c0-6.58-4.858-11.993-11.625-11.993s-11.625,5.413-11.625,11.993,4.862,11.993,11.625,11.993,11.625-5.411,11.625-11.993Z" fill="#003765" stroke-width="0"/>
      <path d="m1079.997,241.792v41.831h-7.997l-20.054-22.946v22.946h-10.398v-41.831h7.936l20.177,23.561v-23.561h10.336Z" fill="#003765" stroke-width="0"/>
    </g>
    <g>
      <path d="m318.313,99.18l25.522,77.031,25.22-77.031h26.442l-41.116,108.516h-21.092l-41.572-108.516h26.596Z" fill="#003765" stroke-width="0"/>
      <path d="m418.726,209.225c-3.974,0-7.668-.638-11.078-1.912-3.417-1.272-6.345-3.056-8.789-5.348-2.447-2.292-4.384-4.991-5.81-8.101-1.426-3.106-2.138-6.496-2.138-10.163,0-3.974.841-7.59,2.522-10.853,1.682-3.259,4.049-6.06,7.107-8.406,3.054-2.343,6.672-4.177,10.851-5.501,4.175-1.324,8.81-1.987,13.909-1.987,3.36,0,6.622.282,9.78.841,3.155.561,5.907,1.401,8.253,2.521v-3.667c0-9.272-5.35-13.909-16.051-13.909-4.38,0-8.559.74-12.533,2.217-3.97,1.477-8.153,3.694-12.529,6.647l-7.186-15.283c5.296-3.464,10.801-6.062,16.507-7.795,5.706-1.732,11.771-2.598,18.188-2.598,12.123,0,21.498,2.853,28.123,8.559,6.622,5.708,9.935,14.062,9.935,25.066v20.634c0,2.445.381,4.152,1.146,5.12.762.968,2.113,1.554,4.049,1.757v20.634c-2.142.508-4.078.841-5.806.994-1.735.153-3.313.23-4.739.23-4.585,0-8.052-.895-10.395-2.675-2.343-1.782-3.819-4.305-4.43-7.565l-.46-3.669c-3.568,4.585-7.819,8.101-12.763,10.546-4.941,2.445-10.161,3.669-15.666,3.669Zm7.186-17.578c2.648,0,5.221-.458,7.718-1.374,2.494-.918,4.56-2.14,6.187-3.669,2.343-1.834,3.518-3.769,3.518-5.808v-7.641c-2.142-.816-4.459-1.453-6.956-1.912-2.497-.458-4.811-.688-6.953-.688-4.484,0-8.178,1.02-11.081,3.058-2.903,2.039-4.355,4.687-4.355,7.948,0,2.955,1.121,5.375,3.363,7.258,2.239,1.888,5.091,2.828,8.559,2.828Z" fill="#003765" stroke-width="0"/>
      <path d="m562.854,207.696h-24.455v-45.088c0-5.296-.992-9.143-2.979-11.539-1.987-2.391-4.614-3.591-7.873-3.591-1.732,0-3.464.359-5.196,1.071-1.735.713-3.417,1.707-5.045,2.981-1.631,1.276-3.083,2.777-4.355,4.508-1.276,1.734-2.271,3.618-2.982,5.656v46.005h-24.451v-80.24h22.008v13.449c2.954-4.788,7.129-8.482,12.533-11.081,5.397-2.598,11.617-3.897,18.645-3.897,5.196,0,9.374.943,12.533,2.828,3.158,1.886,5.602,4.332,7.337,7.335,1.732,3.007,2.878,6.293,3.439,9.86.561,3.566.841,7.03.841,10.391v51.355Z" fill="#003765" stroke-width="0"/>
      <path d="m574.319,167.5c0-5.503.967-10.776,2.903-15.819,1.933-5.045,4.739-9.477,8.408-13.298,3.665-3.819,8.174-6.85,13.525-9.092,5.35-2.24,11.437-3.363,18.264-3.363,9.27,0,17.067,1.964,23.384,5.884,6.317,3.924,11.056,9.044,14.214,15.361l-23.844,7.184c-3.158-5.095-7.793-7.643-13.905-7.643-5.099,0-9.349,1.886-12.763,5.656-3.417,3.769-5.12,8.814-5.12,15.131,0,3.158.456,6.036,1.376,8.634.916,2.6,2.188,4.815,3.819,6.649,1.628,1.834,3.539,3.263,5.731,4.279,2.192,1.02,4.509,1.529,6.956,1.529,3.054,0,5.857-.738,8.404-2.217,2.548-1.475,4.434-3.387,5.656-5.731l23.844,7.337c-2.957,6.216-7.668,11.309-14.139,15.283-6.471,3.974-14.344,5.961-23.614,5.961-6.723,0-12.763-1.146-18.109-3.439-5.35-2.294-9.885-5.35-13.604-9.171-3.722-3.821-6.55-8.253-8.483-13.296-1.937-5.045-2.903-10.318-2.903-15.819Z" fill="#003765" stroke-width="0"/>
      <path d="m703.622,209.225c-6.831,0-12.917-1.123-18.264-3.363-5.35-2.24-9.86-5.273-13.528-9.094-3.669-3.821-6.446-8.253-8.329-13.296-1.886-5.043-2.828-10.316-2.828-15.819s.941-10.776,2.828-15.819c1.883-5.045,4.66-9.477,8.329-13.298,3.669-3.819,8.178-6.877,13.528-9.17,5.347-2.292,11.433-3.439,18.264-3.439s12.889,1.146,18.185,3.439c5.3,2.292,9.784,5.35,13.453,9.17,3.669,3.821,6.468,8.253,8.404,13.298,1.937,5.043,2.903,10.316,2.903,15.819s-.941,10.776-2.828,15.819c-1.886,5.043-4.66,9.475-8.329,13.296-3.669,3.821-8.174,6.854-13.525,9.094-5.35,2.24-11.441,3.363-18.264,3.363Zm-17.883-41.572c0,6.319,1.682,11.387,5.045,15.208,3.36,3.819,7.639,5.731,12.838,5.731,2.544,0,4.89-.508,7.028-1.529,2.142-1.017,3.999-2.445,5.58-4.279,1.577-1.834,2.828-4.049,3.744-6.649.916-2.598,1.376-5.426,1.376-8.482,0-6.317-1.682-11.387-5.045-15.208-3.363-3.821-7.592-5.731-12.684-5.731-2.551,0-4.919.51-7.107,1.529-2.192,1.019-4.078,2.445-5.656,4.279-1.581,1.834-2.828,4.049-3.744,6.647-.92,2.6-1.376,5.426-1.376,8.483Z" fill="#003765" stroke-width="0"/>
      <path d="m782.944,209.225c-8.253,0-14.498-2.573-18.724-7.718-4.229-5.145-6.342-12.711-6.342-22.698v-51.353h24.455v46.005c0,4.89.967,8.634,2.903,11.234,1.933,2.598,4.685,3.897,8.253,3.897,3.259,0,6.417-.864,9.475-2.598,3.058-1.732,5.756-4.739,8.103-9.019v-49.519h24.451v52.729c0,2.445.384,4.152,1.146,5.12.765.968,2.116,1.554,4.053,1.757v20.634c-2.346.508-4.333.841-5.961.994-1.631.153-3.112.23-4.434.23-8.764,0-13.754-3.413-14.976-10.24l-.46-4.892c-3.669,5.3-8.228,9.197-13.679,11.692-5.451,2.497-11.541,3.746-18.264,3.746Z" fill="#003765" stroke-width="0"/>
      <path d="m875.255,207.696l-28.425-80.24h25.217l17.578,60.677,17.728-60.677h22.773l-28.274,80.24h-26.596Z" fill="#003765" stroke-width="0"/>
      <path d="m975.061,209.225c-6.723,0-12.763-1.096-18.109-3.286-5.35-2.19-9.885-5.171-13.604-8.942-3.722-3.769-6.55-8.124-8.483-13.068-1.937-4.941-2.903-10.111-2.903-15.513,0-5.808.967-11.284,2.903-16.43,1.933-5.144,4.739-9.653,8.408-13.526,3.665-3.872,8.174-6.928,13.525-9.17,5.35-2.24,11.437-3.363,18.264-3.363s12.889,1.123,18.188,3.363c5.296,2.242,9.78,5.273,13.449,9.092,3.669,3.821,6.442,8.23,8.329,13.221,1.886,4.994,2.828,10.24,2.828,15.743,0,1.428-.05,2.828-.151,4.202-.104,1.376-.255,2.574-.46,3.591h-59.301c.406,5.402,2.368,9.504,5.886,12.305,3.514,2.803,7.513,4.202,11.997,4.202,3.564,0,7.003-.864,10.316-2.598,3.309-1.732,5.526-4.075,6.647-7.03l20.786,5.808c-3.158,6.319-8.049,11.462-14.671,15.436-6.626,3.974-14.574,5.961-23.844,5.961Zm16.967-49.215c-.514-5.093-2.346-9.118-5.505-12.075-3.158-2.954-7.082-4.432-11.767-4.432-4.79,0-8.738,1.506-11.843,4.509-3.112,3.007-4.919,7.007-5.429,11.997h34.544Z" fill="#003765" stroke-width="0"/>
      <path d="m1079.905,148.395c-5.911.102-11.261,1.069-16.047,2.903-4.79,1.834-8.253,4.585-10.395,8.253v48.144h-24.451v-80.24h22.464v16.2c2.752-5.399,6.292-9.628,10.625-12.686,4.33-3.056,8.94-4.635,13.83-4.738h2.447c.507,0,1.017.052,1.527.153v22.01Z" fill="#003765" stroke-width="0"/>
    </g>
  </g>
</svg>